<?xml version="1.0" encoding="UTF-8" standalone="no"?>
<svg
   xmlns:dc="http://purl.org/dc/elements/1.1/"
   xmlns:cc="http://creativecommons.org/ns#"
   xmlns:rdf="http://www.w3.org/1999/02/22-rdf-syntax-ns#"
   xmlns:svg="http://www.w3.org/2000/svg"
   xmlns="http://www.w3.org/2000/svg"
   version="1.1"
   id="Livello_1"
   x="0px"
   y="0px"
   viewBox="0 0 4500 4500"
   enable-background="new 0 0 4500 4500"
   xml:space="preserve">

<path d="M 700 300 H 3000 L 3800 1100 V 4200 H 700 Z" fill="#ffffff" stroke="#ff0000" stroke-width="300" stroke-linejoin="round" />
<path d="M 3000 300 L 3800 1100 H 3000 Z" fill="#ff0000" stroke="#ff0000" stroke-width="300" stroke-linejoin="round" />

<path d="M 1200 1100 H 2500" stroke="#ff7070" stroke-width="300" stroke-linejoin="square" />
<path d="M 1200 1700 H 3200" stroke="#ff7070" stroke-width="300" stroke-linejoin="square" />
<path d="M 1200 2300 H 3200" stroke="#ff7070" stroke-width="300" stroke-linejoin="square" />
<path d="M 1200 2900 H 3200" stroke="#ff7070" stroke-width="300" stroke-linejoin="square" />
<path d="M 1200 3500 H 3200" stroke="#ff7070" stroke-width="300" stroke-linejoin="square" />

   <rect fill="#000000" y="1700" x="1000" width="3500" height="1700" rx="300" />
<g transform="translate(1300,2000)"><path fill="#ffffff" d="M 885.509 84.242 L 821.056 232.191 Q 687.755 160.414 553.722 160.414 A 403.548 403.548 0 0 0 443.696 174.634 A 298.133 298.133 0 0 0 298.107 265.882 Q 211.249 364.367 205.497 529.268 A 680.578 680.578 0 0 0 205.089 552.992 A 634.377 634.377 0 0 0 214.869 667.948 Q 226.83 732.794 253.418 784.306 A 331.19 331.19 0 0 0 287.853 837.904 A 267.788 267.788 0 0 0 454.161 935.888 A 408.198 408.198 0 0 0 530.285 942.64 A 563.828 563.828 0 0 0 639.616 932.444 A 459.997 459.997 0 0 0 716.32 910.414 L 716.32 661.39 L 491.466 661.39 L 492.931 505.384 L 903.087 505.384 L 903.087 1023.207 Q 803.478 1064.222 714.489 1083.998 A 825.62 825.62 0 0 1 597.387 1100.992 A 1009.724 1009.724 0 0 1 521.496 1103.773 A 654.587 654.587 0 0 1 362.238 1085.487 A 448.126 448.126 0 0 1 138.073 955.824 Q 5.092 813.32 0.198 569.57 A 935.288 935.288 0 0 1 0.011 550.795 A 702.303 702.303 0 0 1 15.625 399.509 A 551.529 551.529 0 0 1 64.464 263.319 Q 128.917 139.174 254.162 69.593 A 543.232 543.232 0 0 1 428.455 9.798 A 725.844 725.844 0 0 1 550.06 0.013 A 761.7 761.7 0 0 1 710.518 16.135 A 568.367 568.367 0 0 1 885.509 84.242 Z M 2121.837 1088.392 L 1904.308 1088.392 L 2280.041 539.076 L 1932.14 15.394 L 2155.529 15.394 L 2408.214 415.297 L 2668.224 15.394 L 2879.894 15.394 L 2524.669 542.006 L 2898.937 1088.392 L 2669.689 1088.392 L 2398.693 670.912 L 2121.837 1088.392 Z M 1306.652 1088.392 L 1111.095 1088.392 L 1111.095 12.465 L 1468.517 12.465 Q 1576.418 12.465 1657.762 36.099 A 450.155 450.155 0 0 1 1685.314 45.057 Q 1775.402 77.65 1827.77 150.892 A 272.777 272.777 0 0 1 1872.147 254.027 A 386.978 386.978 0 0 1 1880.138 334.73 A 512.198 512.198 0 0 1 1875.793 403.046 A 376.685 376.685 0 0 1 1860.363 471.327 A 291.923 291.923 0 0 1 1797.99 576.67 A 335.747 335.747 0 0 1 1795.177 579.725 A 240.748 240.748 0 0 1 1740.52 622.847 Q 1714.559 638.096 1682.494 649.658 A 439.199 439.199 0 0 1 1667.37 654.799 Q 1584.972 681.166 1468.517 681.166 Q 1368.908 681.166 1306.652 675.306 L 1306.652 1088.392 Z M 1469.982 160.414 L 1306.652 160.414 L 1306.652 536.146 A 44.348 44.348 0 0 0 1310.772 536.489 Q 1328.868 537.449 1415.945 537.588 A 19758.463 19758.463 0 0 0 1447.277 537.611 Q 1500.484 537.611 1541.628 528.634 A 297.471 297.471 0 0 0 1553.112 525.892 A 313.015 313.015 0 0 0 1581.743 517.057 Q 1595.665 511.966 1606.967 506.002 A 136.907 136.907 0 0 0 1623.424 495.863 A 138.129 138.129 0 0 0 1663.707 450.453 Q 1678.722 423.353 1683.483 398.085 A 264.352 264.352 0 0 0 1687.053 371.26 A 358.696 358.696 0 0 0 1688.244 341.322 A 218.794 218.794 0 0 0 1681.796 286.572 A 147.173 147.173 0 0 0 1631.115 206.556 A 189.818 189.818 0 0 0 1567.257 173.436 Q 1525.234 160.414 1469.982 160.414 Z" vector-effect="non-scaling-stroke"/></g>
</svg>
